<?xml version="1.0" standalone="no"?><!DOCTYPE svg PUBLIC "-//W3C//DTD SVG 1.1//EN" "http://www.w3.org/Graphics/SVG/1.1/DTD/svg11.dtd"><svg t="1581498137321" class="icon" viewBox="0 0 1024 1024" version="1.1" xmlns="http://www.w3.org/2000/svg" p-id="2610" xmlns:xlink="http://www.w3.org/1999/xlink" width="200" height="200"><defs><style type="text/css"></style></defs><path d="M0 0" p-id="2611"></path><path d="M155.409067 85.333333v852.48c0 63.0784 23.825067 86.186667 89.6 86.186667 110.865067 0 217.6-94.4128 217.6-210.466133V687.479467c34.133333-3.515733 55.125333-15.007289 71.5776-34.474667 18.830222-22.289067 25.1904-53.998933 18.761955-89.088-14.574933-77.892267-45.021867-226.133333-68.608-338.397867C460.356267 111.342933 401.681067 0.512 333.755733 0.512c-1.399467 0-7.68 0.546133-7.68 0.785067V0h-78.1312c-59.5968 0-92.535467 20.48-92.535466 85.333333zM594.0224 697.048178a20.900978 20.900978 0 0 0 0 29.752889 62.464 62.464 0 0 1 18.727822 44.612266 62.543644 62.543644 0 0 1-18.727822 44.726045 20.900978 20.900978 0 0 0 0 29.752889c4.164267 4.130133 9.557333 6.223644 15.018667 6.223644 5.449956 0 10.911289-2.093511 15.109689-6.223644A103.7312 103.7312 0 0 0 655.36 771.413333a103.879111 103.879111 0 0 0-31.197867-74.365155 21.469867 21.469867 0 0 0-30.139733 0zM699.5968 622.626133a21.572267 21.572267 0 0 0-30.208 0 20.821333 20.821333 0 0 0 0 29.730134c32.256 31.8464 50.016711 74.114844 50.016711 119.022933 0 44.9536-17.760711 87.278933-50.016711 119.057067a20.866844 20.866844 0 0 0 0 29.764266c4.1984 4.084622 9.591467 6.178133 15.0528 6.178134s10.888533-2.093511 15.086933-6.178134c40.311467-39.765333 62.464-92.603733 62.464-148.821333 0.079644-56.183467-22.129778-109.056-62.395733-148.753067z" p-id="2612"></path><path d="M774.997333 548.226844a21.447111 21.447111 0 0 0-30.173866 0 20.798578 20.798578 0 0 0 0 29.718756c108.1344 106.734933 108.1344 280.348444 0 387.015111a20.8896 20.8896 0 0 0 0 29.7984c4.164267 4.050489 9.6256 6.178133 15.086933 6.178133a21.617778 21.617778 0 0 0 15.018667-6.178133c124.8256-123.164444 124.8256-323.458844 0.068266-446.532267z" p-id="2613"></path></svg>